<?xml version="1.0" encoding="utf-8"?>
<!-- Generator: Adobe Illustrator 16.0.0, SVG Export Plug-In . SVG Version: 6.00 Build 0)  -->
<!DOCTYPE svg PUBLIC "-//W3C//DTD SVG 1.1//EN" "http://www.w3.org/Graphics/SVG/1.1/DTD/svg11.dtd">
<svg version="1.1" id="Layer_1" xmlns="http://www.w3.org/2000/svg" xmlns:xlink="http://www.w3.org/1999/xlink" x="0px" y="0px"
	 width="469.953px" height="249.331px" viewBox="0 0 469.953 249.331" enable-background="new 0 0 469.953 249.331"
	 xml:space="preserve">
<g>
	<path fill-rule="evenodd" clip-rule="evenodd" fill="#FFFFFF" d="M12.662,34.244c6.281,0.008,16.788-0.036,29.76-0.16
		s28.409-0.327,38.808-0.382c10.399-0.056,15.759,0.038,20.447,0.077s8.704,0.023,10.36,2.397c1.656,2.375,0.953,7.14,0.348,13.445
		c-0.606,6.305-1.113,14.148,2.309,16.648s10.773-0.344,22.356-5.357s27.398-12.195,35.868-15.599
		c8.47-3.404,9.594-3.029,11.25-2.153c1.656,0.875,3.844,2.249,5.656,3.593s3.25,2.657,4.594,3.531
		c1.343,0.875,2.593,1.313,4.156,1.25c1.563-0.062,3.438-0.625,8.344-3.499c4.906-2.875,12.844-8.063,18.594-12.126
		c5.75-4.062,9.313-7,11.719-8.938c2.406-1.937,3.656-2.875,5.313-3.406s3.719-0.656,6.124-0.375
		c2.407,0.281,5.157,0.969,7.501,1.781s4.281,1.75,6.03,2.406c1.75,0.656,3.313,1.031,4.907,0.844s3.219-0.938,6.249-3.719
		c3.032-2.781,7.47-7.594,11.532-11.531s7.749-6.999,10.593-9.062c2.845-2.063,4.845-3.126,6.97-3.657s4.375-0.531,11.094,3.094
		s17.906,10.876,24.531,15.344c6.625,4.469,8.688,6.156,11.094,6.938s5.156,0.657,8,0.094c2.844-0.562,5.781-1.563,8.188-2.313
		s4.281-1.249,8.25,1.063s10.031,7.437,16.406,12.624s13.063,10.438,18.594,14.625c5.531,4.188,9.906,7.313,15.75,10.97
		c5.844,3.655,13.156,7.844,18.641,10.702c5.483,2.86,9.14,4.392,12.249,5.438c3.109,1.048,5.672,1.61,7.766,2.203
		c2.094,0.595,3.719,1.22,4.563,2.032s0.906,1.813,0.938,2.749c0.031,0.938,0.031,1.813,0.327,27.136
		c0.296,25.322,0.889,75.092,1.06,100.665c0.171,25.572-0.079,26.947-0.36,28.165c-0.281,1.22-0.594,2.282-1.156,3.188
		s-1.375,1.656-2.375,2.25s-2.188,1.031-4.344,1.375s-5.281,0.594-79.778,0.734s-220.368,0.171-294.271,0.187
		c-73.904,0.016-75.841,0.016-77.623-0.141s-3.406-0.469-4.656-1.125s-2.125-1.656-3-3.719s-1.75-5.188-2.108-14.573
		c-0.359-9.385-0.201-25.029-0.122-57.514c0.079-32.484,0.079-81.808,0.205-106.952C0.434,40.35,0.686,39.385,1.033,38.186
		c0.348-1.2,0.792-2.635,2.042-3.322S6.381,34.236,12.662,34.244z"/>
	<path fill-rule="evenodd" clip-rule="evenodd" fill="#008B46" d="M316.598,40.958c3.042-0.423,5.484,1.608,5.823,4.204
		c0.823,6.302-10.266,6.928-11.058,0.924C310.967,43.079,313.94,41.328,316.598,40.958L316.598,40.958z M221.223,97.786
		l-14.178-0.206c0.427-0.382,0.201-0.21,0.958-0.45c0.388-0.124,0.696-0.219,1.071-0.333c3.916-1.196,11.52-3.557,14.68-4.856
		c7.58-3.117,18.923-8.504,25.899-13.022c1.193-0.773,2.269-1.467,3.386-2.242c3.015-2.094,8.51-5.883,11.416-8.119
		c0.536-0.413,0.981-0.937,1.629-1.102l-0.604-0.162l-0.166-0.978c0.479,0.201,0.545-0.092,1.269-0.264
		c0.486-0.116,1.188-0.251,1.543-0.361c0.121-0.315-0.055-0.161,0.391-0.524l5.293-4.816c0.305-0.252,0.575-0.438,0.851-0.703
		l3.362-2.961c0.607-0.502,2.521-2.909,3.015-2.917l1.424-1.779c1.2-1.488,3.676-3.271,5.408-4.284
		c5.323-3.117,15.454-4.662,20.717-1.762c1.505,0.829,2.471,2.496,0.895,3.979c-1.228,1.156-2.068,1.921-1.653,4.525
		c0.813,0.797,3.109,1.328,4.551,1.416c5.177,0.315,10.525-2.542,15.438-2.444c-0.473,2.276-3.492,4.071-5.339,5.004
		c-2.226,1.125-5.578,1.848-8.405,2.049c-3.346,0.238-10.771-0.583-12.588-2.793c-1.018-1.238-0.472-3.106-1.061-4.135
		c-1.037-0.551-4.248,0.134-5.394,0.476c-1.521,0.455-3.197,1.26-3.886,2.145c0.443,0.194,5.101,3.217,5.369,3.589
		c3.378,1.135,13.05,1.925,16.54,5.307l-0.226,1.938c1.124-0.636,2.16-1.281,3.418-1.741c0.604-0.221,1.323-0.426,2.043-0.447
		c0.471-0.015,1.81,0.017,1.849,0.5c2.562-0.635,5.908-0.823,8.665-0.723c-0.856-1.658,0.08-2.889,0.819-3.8
		c1.104-1.358,4.43-3.476,5.505-4.753c0.881-1.049,1.589-1.688,2.613-2.59c2.713-2.387,2.675-1.987,6.609,0.442
		c2.692,1.663,3.769,2.648,6.214,4.186c1.17,0.734,15.258,9.969,15.669,10.028c2.451,0.354,6.975-5.298,11.327-2.453
		c0.483,0.316,1.006,0.75,1.447,1.087l10.177,7.949c5.543,4.456,12.163,8.915,18.292,12.623c4.49,2.716,8.672,5.013,13.555,7.106
		l7.089,3.122l-1.744,0.214l31.888-0.177c-0.426-0.555-4.494-2.124-5.12-2.389c-4.452-1.88-11.89-5.052-15.765-7.003
		c-1.623-0.817-3.25-1.766-4.812-2.636l-12.015-6.959c-3.322-1.914-8.332-5.204-11.48-7.348
		c-8.502-5.788-18.041-12.973-26.106-19.428c-0.676-0.541-11.637-9.176-12.761-9.869c-6.015-3.71-11.498,1.801-16.44,3.776
		c-3.191,1.276-3.196,0.584-5.461-0.844l-27.577-17.813c-1.629-1.074-2.698-2.196-4.403-3.188c-2.129-1.238-6.395-4.207-8.178-5.028
		c-0.487-0.225-1.014-0.343-1.426-0.593h-1.361c-1.246,0.73-2.315,0.975-3.848,2.756c-1.205,1.4-2.605,2.116-4.117,4.034L293.052,29
		c-0.388,0.354-0.493,0.492-0.883,0.802l-7.826,7.072c-0.348,0.34-0.411,0.463-0.777,0.762c-1.549,1.268-4.92,4.514-6.28,5.528
		l-3.619,2.988c-3.448,2.905-7.983,5.723-11.564,8.39c-2.585,1.925-5.148,3.597-7.736,5.476
		c-4.444,3.228-11.516,7.745-16.205,10.352c-2.805,1.56-5.79,2.976-8.751,4.467c-5.946,2.994-11.691,5.843-17.81,8.744
		c-12.714,6.032-21.556,8.076-34.161,12.22c-1.448,0.477-3.804,1.052-4.996,1.653c7.951,0.374,16.289,0.225,24.283,0.259
		C204.838,97.748,213.127,97.935,221.223,97.786z"/>
	<path fill-rule="evenodd" clip-rule="evenodd" fill="#A5CD39" d="M13.849,181.882h201.568c0.448-0.191,0.094,0.17,0.469-0.415
		l13.335-23.485c1.548-2.671,3.081-5.318,4.532-7.976c2.135-3.91,4.756-8.187,6.887-12.083c0.71-1.299,1.464-2.629,2.243-3.939
		c1.563-2.632,2.956-5.337,4.526-7.983l4.492-8.009c0.437,0.345,0.419,0.46,0.698,0.947l8.332,14.152
		c1.465,2.572,2.96,5.046,4.476,7.613c0.369,0.628,0.701,1.324,1.14,1.95c0.376,0.535,0.062,0.042,0.458,0.394
		c0.2,0.177,0.173,0.213,0.286,0.412l1.614,2.741c0.372,0.587,0.85,1.314,1.091,1.962h-8.345c-0.499-0.259-0.776-1.009-1.053-1.523
		c-0.259-0.482-0.559-1.135-0.899-1.522l-12.241,0.003c-0.495,0.111-1.098,1.521-1.336,1.94c-0.407,0.715-0.784,1.378-1.195,2.035
		c-0.744,1.19-1.717,2.821-2.334,4.029l26.907,0.056l8.269,13.95c0.295,0.432,0.113,0.239,0.466,0.366h11.676l-31.019-51.618
		c-1.707-2.78-2.984-6.15-6.656-6.041c-3.476,0.104-4.79,3.395-6.532,6.308c-0.813,1.36-1.565,2.578-2.378,3.943l-31.013,51.768
		c-0.371,0.652-2.047,3.734-2.517,3.913H13.836L13.849,181.882z"/>
	<path fill-rule="evenodd" clip-rule="evenodd" fill="#A5CD39" d="M227.896,181.662c1.646-0.044,0.296,0.231,2.277,0.222
		c0.796-0.005,1.593-0.001,2.389-0.001h148.047c0.229-0.643,0.758-1.396,1.128-2.073c0.357-0.655,0.736-1.275,1.118-1.975
		l6.823-12.009c1.559-2.601,2.994-5.341,4.527-7.983l22.591-39.661l14.697,24.511c0.327,0.404,0.361,0.186,0.738,0.809l2.662,4.659
		l-8.556-0.02l-1.804-3.151c-0.683,0.369-11.283-0.102-12.092,0.124c-0.352,0.099-2.149,3.382-2.455,3.919
		c-0.704,1.241-1.813,2.866-2.366,4.155h26.898c0.612,1.192,1.428,2.398,2.129,3.605l5.348,8.989
		c0.288,0.478,0.741,1.512,1.223,1.722l11.744-0.004c-1.456-2.657-3.151-5.195-4.707-7.866c-4.467-7.667-9.73-16.253-14.363-23.866
		c-0.674-1.107-13.444-22.577-14.343-23.746c-2.377-3.096-6.14-2.864-8.384,0.135l-9.578,15.859
		c-7.859,13.022-16.147,26.613-23.838,39.688c-1.585,2.694-3.096,5.402-4.735,8.051l-144.343,0.016L227.896,181.662z"/>
	<path fill-rule="evenodd" clip-rule="evenodd" fill="#00502B" d="M13.849,181.882l-0.014,6.915h205.657
		c0.369-0.1,1.843-2.916,2.125-3.419l6.107-10.76c2.476-4.543,5.706-9.773,8.101-14.244c1.315-2.455,2.708-4.613,4.026-7.075
		c1.307-2.438,2.745-4.688,4.075-7.168c1.309-2.44,2.743-4.688,4.074-7.169c0.649-1.208,1.331-2.402,2.036-3.588
		c0.359-0.606,0.651-1.202,1.01-1.803c0.331-0.554,0.671-1.273,1.049-1.718l3.938,6.562c0.346,0.593,2.772,4.546,2.874,5.02
		c0.133,0.626,0.56,1.04,0.792,1.683c0.341,0.388,0.641,1.04,0.899,1.522c0.276,0.515,0.554,1.265,1.053,1.523h8.345
		c-0.241-0.647-0.719-1.375-1.091-1.962l-1.614-2.741c-0.113-0.199-0.086-0.235-0.286-0.412c-0.396-0.352-0.082,0.142-0.458-0.394
		c-0.438-0.626-0.771-1.322-1.14-1.95c-1.516-2.567-3.011-5.041-4.476-7.613l-8.332-14.152c-0.279-0.487-0.262-0.603-0.698-0.947
		L247.409,126c-1.57,2.646-2.963,5.352-4.526,7.983c-0.779,1.311-1.533,2.641-2.243,3.939c-2.131,3.896-4.752,8.173-6.887,12.083
		c-1.451,2.657-2.984,5.305-4.532,7.976l-13.335,23.485c-0.375,0.585-0.021,0.224-0.469,0.415H13.849z"/>
	<path fill-rule="evenodd" clip-rule="evenodd" fill="#58595B" d="M303.721,167.453l9.854,0.043l0.006-46.939
		c8.22,0,16.44,0,24.662,0c3.588,0,8.409-0.365,11.493,0.887c2.838,1.151,4.803,3.352,5.436,6.933
		c1.295,7.33-1.314,14.089-9.619,14.53c-4.752,0.252-13.144,0.026-18.553,0.026c-1.836,0-4.382-0.146-6.132,0.034l-0.008,8.71
		l21.036,0.019c0.592,0.104,3.879,4.056,4.629,4.866l8.194,8.946c0.599,0.727,1.219,1.268,1.77,1.989l14.054,0.001l-8.493-8.618
		c-0.658-0.502-8.222-8.24-8.46-8.656c1.329-0.911,3.629-1.309,6.352-4.159c3.088-3.231,4.783-7.271,5.188-12.386
		c0.751-9.47-2.841-16.369-8.261-19.793c-3.045-1.925-6.448-3.012-10.75-3.228c-4.559-0.229-9.591-0.039-14.2-0.039
		c-2.178,0-26.739-0.138-28.179,0.04L303.721,167.453z"/>
	<path fill-rule="evenodd" clip-rule="evenodd" fill="#00502B" d="M227.896,181.662c-0.567,1.55-2.704,5.726-3.224,7.363
		c0.803,0.004,1.605,0.003,2.409,0.003c2.757,0.002,1.306-0.158,2.246-0.238l15.039,0.008c40.052,0,80.104,0,120.155,0
		c6.618,0,13.545,0.198,20.126-0.014l10.054-17.793c0.682-1.177,1.389-2.382,2.034-3.587c2.438-4.545,5.688-9.735,8.102-14.244
		c2.391-4.464,5.618-9.695,8.102-14.243c0.638-1.169,1.339-2.445,2.029-3.596c0.346-0.576,1.633-3.102,2.125-3.525l5.694,9.77
		c0.265,0.42,0.771,1.188,0.933,1.593c0.187,0.466,0.03,0.406,0.341,0.928c0.233,0.394,0.306,0.495,0.474,0.903l1.804,3.151
		l8.556,0.02l-2.662-4.659c-0.377-0.623-0.411-0.404-0.738-0.809l-14.697-24.511l-22.591,39.661
		c-1.533,2.643-2.969,5.383-4.527,7.983l-6.823,12.009c-0.382,0.699-0.761,1.319-1.118,1.975c-0.37,0.677-0.898,1.431-1.128,2.073
		H232.562c-0.796,0-1.593-0.004-2.389,0.001C228.191,181.893,229.541,181.618,227.896,181.662z"/>
	<path fill-rule="evenodd" clip-rule="evenodd" fill="#102115" d="M328.801,64.587c4.873,0.442,7.444,1.271,10.574,3.685
		c2.421,1.867,4.438,5.278,4.305,10.015l8.707,4.947c5.566,3.275,20.059,10.233,24.025,13.214c0.364,0.274,0.584,0.45,0.969,0.719
		c0.315,0.222,0.757,0.427,1.074,0.632c2.005,0.056,3.812,0.166,5.881,0.142c2.015-0.023,4.028-0.037,6.043-0.056
		c11.857-0.114,24.196-0.243,35.994-0.135l1.744-0.214l-7.089-3.122c-4.883-2.094-9.064-4.391-13.555-7.106
		c-6.129-3.708-12.749-8.167-18.292-12.623l-10.177-7.949c-0.441-0.337-0.964-0.771-1.447-1.087
		c-4.353-2.845-8.876,2.807-11.327,2.453c-0.411-0.06-14.499-9.294-15.669-10.028c-2.445-1.537-3.521-2.522-6.214-4.186
		c-3.935-2.43-3.896-2.829-6.609-0.442c-1.024,0.901-1.732,1.541-2.613,2.59c-1.075,1.277-4.4,3.395-5.505,4.753
		C328.881,61.699,327.944,62.929,328.801,64.587z"/>
	<path fill-rule="evenodd" clip-rule="evenodd" fill="#58595B" d="M97.253,120.658c3.154-0.326,7.375-0.102,10.657-0.102
		c3.391,0,7.036-0.225,10.195,0.634c12.308,3.344,15.933,17.773,10.259,27.844c-2.223,3.946-6.763,7.7-13.1,8.409
		c-3.165,0.354-7.445,0.119-10.727,0.119c-3.36,0-7.094,0.242-10.217-0.631c-12.217-3.415-15.792-17.864-10.277-27.907
		C86.656,124.265,91.714,121.23,97.253,120.658L97.253,120.658z M97.512,110.665c-4.841,0.259-8.716,1.413-12.399,3.405
		c-15.357,8.31-17.594,30.064-7.19,43.378c0.779,0.997,1.907,2.06,2.852,3.044c0.306,0.319,0.659,0.534,1.072,0.897
		c0.547,0.481,1.543,1.201,2.266,1.669c0.833,0.539,1.597,0.958,2.503,1.438c3.724,1.97,7.857,2.991,12.722,3.004
		c3.754,0.009,12.542,0.148,15.753-0.065c4.606-0.306,8.794-1.661,12.115-3.675c3.593-2.18,5.994-4.404,8.243-7.499
		c4.573-6.291,6.848-15.855,4.616-25.27c-3.136-13.233-14.08-20.289-26.815-20.371C108.204,110.587,102.482,110.398,97.512,110.665z
		"/>
	<path fill-rule="evenodd" clip-rule="evenodd" fill="#58595B" d="M147.87,120.06l38.988,0.027
		c-0.514,0.797-11.175,11.569-12.717,12.889c-1.161,0.994-12.312,12.508-13.873,14.096l-2.79,2.831
		c-2.112,1.807-4.234,4.166-6.2,6.167c-1.108,1.128-3.307,2.967-3.899,4.952c-0.709,2.379,0.168,4.73,2.603,5.875
		c1.995,0.938,5.813,0.603,8.238,0.603h35.836c2.872,0,6.138,0.144,8.962-0.021l0.009-9.413l-39.514-0.034l4.289-4.409
		c1.129-1.148,6.592-6.824,7.726-7.732c0.391-0.313,0.762-0.755,1.125-1.123l13.313-13.532c0.746-0.757,1.396-1.463,2.158-2.198
		l2.302-2.194c1.684-1.713,7.811-7.476,8.493-9.354c1.065-2.934-0.322-5.109-2.291-6.16c-1.941-1.037-5.658-0.709-8.118-0.709
		c-4.588,0-42.853-0.166-44.623,0.037L147.87,120.06z"/>
	<path fill-rule="evenodd" clip-rule="evenodd" fill="#FFFFFF" d="M97.253,120.658c-5.54,0.572-10.597,3.607-13.21,8.366
		c-5.516,10.043-1.94,24.492,10.277,27.907c3.124,0.873,6.857,0.631,10.217,0.631c3.282,0,7.562,0.235,10.727-0.119
		c6.336-0.709,10.876-4.463,13.1-8.409c5.674-10.07,2.049-24.5-10.259-27.844c-3.159-0.858-6.804-0.634-10.195-0.634
		C104.628,120.556,100.408,120.332,97.253,120.658z"/>
	<path fill-rule="evenodd" clip-rule="evenodd" fill="#A5CD39" d="M112.42,97.385c1.614,0.288,9.059,0.632,11.088,0.704
		c13.382,0.474,18.013-1.226,30.623-4.798c17.932-5.081,35.017-11.609,51.658-19.74c9.664-4.722,25.441-13.414,34.186-19.357
		c1.202-0.817,2.373-1.609,3.593-2.45c1.212-0.834,2.296-1.552,3.51-2.392c1.203-0.833,2.385-1.715,3.613-2.444
		c2.548,0.36,5.727,3.944,8.071,3.164c1.03-0.343,5.749-3.817,6.676-4.694c-0.644-0.96-2.549-2.175-3.947-2.927
		c-1.488-0.801-3.088-1.539-4.591-2.296c-3.417-1.722-6.8-4.412-10.013-2.796c-2.08,1.046-5.896,4.313-7.989,5.924
		c-2.665,2.052-5.154,3.993-7.954,5.956c-4.575,3.21-12.152,7.933-17.143,10.546l-9.053,4.856c-3,1.579-6.184,3.154-9.307,4.612
		c-6.279,2.932-12.533,5.874-19.298,8.382c-14.692,5.449-26.207,10.022-41.688,13.962C131.241,92.415,113.683,96.328,112.42,97.385z
		"/>
	<path fill-rule="evenodd" clip-rule="evenodd" fill="#D1E187" d="M10.408,97.323c10.322,1.426,38.262,0.807,49.293,0.047
		c5.06-0.349,16.295-2.579,21.851-3.6c7.14-1.312,14.368-2.504,21.448-3.981c13.656-2.851,27.495-6.252,40.254-10.469
		c9.571-3.163,18.83-6.339,28.187-9.899c13.978-5.319,7.509-2.458,12.629-1.264c3.074,0.717,8.239-2.671,10.253-4.216l-4.644-2.52
		c-1.609-0.976-2.862-1.947-4.276-3.032c-4.296-3.295-5.943-1.924-10.169,0.493c-11.807,6.753-28.632,12.134-42.049,15.98
		c-21.422,6.142-49.508,12.664-71.332,15.827c-8.471,1.228-17.006,2.262-25.438,3.645C30.488,95.306,13.715,95.938,10.408,97.323z"
		/>
	<path fill-rule="evenodd" clip-rule="evenodd" fill="#102115" d="M266.084,67.455c-0.647,0.165-1.093,0.688-1.629,1.102
		c-2.906,2.236-8.401,6.025-11.416,8.119c-1.117,0.775-2.192,1.469-3.386,2.242c-6.977,4.519-18.319,9.905-25.899,13.022
		c-3.16,1.3-10.764,3.66-14.68,4.856c-0.375,0.114-0.684,0.209-1.071,0.333c-0.757,0.24-0.531,0.068-0.958,0.45l14.178,0.206
		l38.771,0.049c-1.38-1.036-5.423-1.387-6.832-7.413c-0.996-4.265,0.635-8.381,2.365-11.396c1.722-3,4.194-5.656,6.538-7.65
		c1.565-1.332,2.612-1.684,3.205-2.139c0.424-0.326-0.125-0.181,1.14-0.695c1.013-0.412,1.778-0.395,2.821-0.68
		c1.069-0.294,2.146-0.511,3.048,0.044c-1.465,1.348-2.677,2.002-4.306,3.192l-4.216,3.511c-2.518,2.377-4.932,5.856-5.814,9.499
		c-2.553,10.536,7.961,14.761,16.386,10.488c1.783-0.905,3.292-1.816,4.655-2.934c2.367-1.94,3.788-3.42,5.625-5.899
		c4.491-6.062,5.421-13.29-2.282-17.631c-1.704-0.961-3.891-1.466-6.199-1.442c-2.548,0.026-4.966,0.247-7.589,0.248L266.084,67.455
		z"/>
	<path fill-rule="evenodd" clip-rule="evenodd" fill="#102115" d="M268.125,65.69c6.133-1.032,11.691-1.748,17.449,0.596
		c8.148,3.315,9.937,11.341,5.281,19.26c-0.344,0.584-0.599,0.94-0.966,1.423c-3.294,4.328-7.702,7.616-12.897,9.589
		c-0.89,0.337-3.238,0.909-3.842,1.239l37.038,0.04c-0.085-0.088-0.104-0.134-0.276-0.227c-0.136-0.072-0.166-0.07-0.307-0.13
		c-0.24-0.1-0.364-0.146-0.588-0.254c-0.453-0.223-0.719-0.404-1.139-0.68c-6.409-4.196-5.322-11.608-1.945-17.563
		c0.817-1.441,3.262-5.013,4.52-6.022c2.365-1.897,8.762-7.017,12.144-5.065c-0.825,0.898-2.146,1.646-3.169,2.377l-3.976,3.054
		l-4.719,5.254c-9.28,13.771,4.984,23.473,18.108,13.616c3.209-2.409,8.182-7.66,9.12-13.584
		c-1.022-0.59-12.227-9.307-13.644-10.457c-0.86-0.698-0.831-0.929-2.154-1.105c-4.414-0.463-3.612,0.508-5.573,0.381
		c-0.925-0.06-0.854-0.225-0.941-1.103c0.216,0.103,3.372-0.819,4.486-1.018c-0.039-0.483-1.378-0.515-1.849-0.5
		c-0.72,0.021-1.439,0.227-2.043,0.447c-1.258,0.46-2.294,1.105-3.418,1.741c-0.738,1.067-0.213,0.99-1.998,2.538
		c-0.391,0.339-0.881,0.656-1.246,1.008c-3.213,3.086-7.017,6.994-9.31,10.924c-1.009,1.729-1.625,5.159-3.066,5.967
		c-0.896-0.257-1.73-1.157-2.057-2.056c-1.029-2.833,1.104-6.982,2.454-9.247c1.025-1.722,2.256-3.321,3.386-4.63
		c1.181-1.368,3.119-2.047,3.132-4.93c-7.23-0.58-17.992,0.52-23.156-5.657c-0.713-0.854-1.271-2.125-1.173-3.599
		c0.116-1.752,0.806-2.335,1.244-3.549c-0.494,0.008-2.407,2.415-3.015,2.917l-3.362,2.961c-0.275,0.266-0.546,0.451-0.851,0.703
		l-5.293,4.816C268.07,65.529,268.246,65.375,268.125,65.69z"/>
	<path fill-rule="evenodd" clip-rule="evenodd" fill="#D1E187" d="M14.887,49.087c2.89-0.178,11.118-0.021,14.596-0.021
		c3.927,0,10.417-0.753,11.94,2.561c0.906,1.972,0.317,4.711-0.964,5.693c-1.604,1.229-4.034,1.06-6.278,1.06
		c-2.968,0-12.229-0.147-14.453,0.023l0.059,5.596c4.18,0.199,17.254-0.574,20.064,0.556c1.147,0.461,2.069,1.482,2.444,2.768
		c1.485,5.085-3.243,6.687-8.245,6.687l-19.164-0.02V49.087L14.887,49.087z M8.203,80.141l0.021,0.497c8.743,0,17.481,0,26.218,0
		c6.039,0,10.94-0.673,13.631-6.056c2.05-4.103,1.771-10-2.24-12.879c-0.797-0.572-1.646-0.787-2.35-1.27
		c1-0.695,2.394-0.826,3.742-2.878c2.971-4.521,2.345-15.173-11.086-15.173c-9.352,0-18.705,0-28.057,0L8.203,80.141z"/>
	<path fill-rule="evenodd" clip-rule="evenodd" fill="#58595B" d="M450.433,230.918c-3.903,0-7.807,0-11.711,0
		c-3.71,0-7.388,0.347-10.675-0.871c-5.066-1.876-8.929-7.603-7.885-14.902c0.87-6.079,5.431-10.713,11.947-11.015
		c4.281-0.198,20.324,0.234,23.029-0.055l-0.028-7.139c-3.237-0.193-12.226-0.02-16.107-0.02c-5.57,0-9.484-0.364-14.433,1.556
		c-16.342,6.336-15.716,32.929,1.993,38.679c4.331,1.407,10.29,0.964,15.109,0.964c5.303,0,10.728,0.112,16.015-0.01v-23.961
		l-25.843,0.012l0.007,6.051h18.581V230.918z"/>
	<path fill-rule="evenodd" clip-rule="evenodd" fill="#58595B" d="M70.354,238.07c0-1.977-0.177-32.887,0.078-33.955
		c5.981,0,11.963,0,17.944,0c2.763,0,5.84-0.266,8.253,0.679c5.473,2.143,5.413,12.132,0.299,14.698
		c-3.731,1.872-16.283,0.233-21.305,0.875l0.009,6.3l15.479,0.002c1.864,2.389,5.845,6.267,7.777,8.609
		c0.244,0.296,2.429,2.756,2.697,2.839l9.958-0.03c-0.482-0.745-2.281-2.397-3.029-3.158l-9.208-9.185
		c0.42-0.508,1.741-0.798,3.294-1.983c1.03-0.786,1.721-1.541,2.489-2.572c1.464-1.967,2.373-4.552,2.605-7.619
		c0.527-6.941-2.059-11.675-5.987-14.28c-4.753-3.152-11.797-2.371-18.111-2.371c-6.783,0-13.566-0.011-20.383,0l0,41.196
		L70.354,238.07z"/>
	<path fill-rule="evenodd" clip-rule="evenodd" fill="#58595B" d="M132.279,204.156c2.356-0.179,5.247-0.041,7.672-0.041
		c3.829,0,6.71-0.225,10.026,1.716c8.244,4.824,8.092,16.94,1.516,22.275c-0.437,0.354-0.697,0.551-1.144,0.822
		c-1.599,0.97-3.49,1.733-5.754,1.934c-2.396,0.212-5.415,0.057-7.876,0.057c-2.627,0-4.855,0.162-7.333-0.563
		c-8.981-2.624-10.968-13.97-6.96-20.361C124.273,207.048,127.313,204.532,132.279,204.156L132.279,204.156z M113.354,219.371
		c0.693,7.097,4.132,11.927,7.975,14.828c5.701,4.306,10.648,3.917,18.904,3.917c6.204,0,10.858-0.366,15.738-4.406
		c2.691-2.229,4.495-4.46,5.969-8.229c1.173-2.998,1.685-6.354,1.479-9.905c-0.191-3.294-1.112-6.57-2.525-8.996
		c-1.385-2.377-2.043-3.04-3.783-4.785c-0.323-0.324-1.087-0.857-1.587-1.227c-5.434-4.011-11.412-3.649-19.084-3.649
		c-3.841,0-6.871-0.063-10.339,1.15c-4.196,1.469-7.483,3.983-9.666,7.482C113.902,209.605,112.862,214.347,113.354,219.371z"/>
	<path fill-rule="evenodd" clip-rule="evenodd" fill="#58595B" d="M402.651,238.625h1.683c0.7-0.466,0.885-0.225,1.722-1.191
		c0.465-0.537,0.732-1.111,0.873-1.923c0.274-1.588,0.095-36.478,0.095-38.934h-6.854l-0.009,30.054
		c-1.032-0.54-5.384-5.334-6.731-6.656c-2.305-2.262-4.498-4.428-6.799-6.692l-13.527-13.456c-0.867-0.854-2.376-2.564-3.635-3.115
		c-2.063-0.902-3.94,0.22-4.624,1.62c-0.894,1.829-0.49,10.355-0.49,13.028c0,2.806-0.143,26.052,0.104,26.758l6.752-0.022l0.007-30
		c0.416,0.205,0.273,0.115,0.609,0.459c0.191,0.197,0.29,0.298,0.485,0.495l6.707,6.785c2.345,2.37,7.438,7.753,9.641,9.755
		c0.419,0.381,0.661,0.524,1.049,0.917c2.6,2.64,8.221,8.539,10.554,10.669C401.697,238.486,401.634,238.019,402.651,238.625z"/>
	<path fill-rule="evenodd" clip-rule="evenodd" fill="#58595B" d="M14.083,238.098l7.04,0.019c0.275-0.819,0.1-21.648,0.1-25.492
		c0-2.089-0.249-6.708,0.053-8.5c5.705-0.193,11.75-0.01,17.493-0.01c4.304,0,10.582-0.74,12.064,5.445
		c1.138,4.747-1.136,9.68-6.86,10.103c-3.528,0.261-15.793-0.267-17.465,0.096l-0.016,6.827c1.18,0.335,11.066,0.083,13.12,0.083
		c4.793,0,7.44,0.152,11.365-1.832c2.716-1.374,4.876-3.838,6.119-7.095c1.262-3.309,1.345-7.897,0.29-11.366
		c-1.059-3.479-3.22-5.972-5.798-7.41c-3.469-1.936-6.637-2.048-11.132-2.048c-2.07,0-24.953-0.12-26.351,0.035L14.083,238.098z"/>
	<path fill-rule="evenodd" clip-rule="evenodd" fill="#FFFFFF" d="M132.279,204.156c-4.965,0.376-8.006,2.893-9.853,5.839
		c-4.007,6.392-2.021,17.737,6.96,20.361c2.478,0.725,4.706,0.563,7.333,0.563c2.461,0,5.479,0.155,7.876-0.057
		c2.264-0.2,4.156-0.964,5.754-1.934c0.447-0.271,0.708-0.469,1.144-0.822c6.576-5.335,6.728-17.451-1.516-22.275
		c-3.316-1.94-6.198-1.716-10.026-1.716C137.525,204.115,134.635,203.977,132.279,204.156z"/>
	<path fill-rule="evenodd" clip-rule="evenodd" fill="#58595B" d="M60.405,167.487l15.154-0.011
		c-1.522-1.253-3.075-2.373-4.661-3.57l-33.564-25.488c0.42-0.588,26.355-19.762,27.732-20.781l7.004-5.223
		c0.518-0.39,2.024-1.394,2.287-1.795H61.394c-2.373,0-1.86-0.253-3.384,0.941l-29.4,22.601c-1.533,1.169-2.638,3.306-1.717,6.149
		c0.489,1.513,3.082,3.233,4.429,4.285l26.693,20.956C58.857,166.21,59.679,166.824,60.405,167.487z"/>
	<path fill-rule="evenodd" clip-rule="evenodd" fill="#58595B" d="M279.855,204.219c0.575-0.482,21.025-0.222,23.576-0.222v-7.029
		c-3.949,0-7.897,0-11.847,0c-3.87,0-8.077,0.163-11.892,0.039c-2.874-0.288-7.841,1.771-9.74,2.981
		c-14.644,9.322-10.523,35.339,8.283,37.927c3.601,0.495,8.853,0.2,12.646,0.2c1.997,0,11.463,0.121,12.609-0.055l-0.018-7.109
		c-2.052-0.201-15.115-0.033-18.354-0.033c-3.015,0-5.685,0.22-8.404-0.753c-7.483-2.676-9.964-11.598-7.386-18.155
		C271.03,207.686,275.44,204.208,279.855,204.219z"/>
	<path fill-rule="evenodd" clip-rule="evenodd" fill="#58595B" d="M186.814,204.217c0.626-0.503,20.948-0.22,23.539-0.22v-7.029
		c-6.041,0-12.083,0-18.125,0l-6.009,0.102c-2.885-0.331-7.785,1.933-9.633,3.142c-2.576,1.686-4.415,3.681-6.045,6.606
		c-6.136,11.011-0.758,29.067,14.664,31.102c3.276,0.432,20.557,0.196,25.235,0.196l-0.037-7.197c-6.105,0-12.211,0-18.316,0
		c-3.003,0-5.705,0.22-8.411-0.747c-7.436-2.655-10.034-11.576-7.391-18.172c0.519-1.294,0.981-1.966,1.662-2.972
		C179.627,206.547,183.54,204.21,186.814,204.217z"/>
	<path fill-rule="evenodd" clip-rule="evenodd" fill="#FFFFFF" d="M281.036,53.768c-0.438,1.214-1.128,1.797-1.244,3.549
		c-0.098,1.474,0.46,2.745,1.173,3.599c5.164,6.177,15.926,5.077,23.156,5.657c-0.013,2.883-1.951,3.562-3.132,4.93
		c-1.13,1.309-2.36,2.908-3.386,4.63c-1.35,2.265-3.483,6.414-2.454,9.247c0.326,0.898,1.161,1.799,2.057,2.056
		c1.441-0.808,2.058-4.237,3.066-5.967c2.293-3.93,6.097-7.838,9.31-10.924c0.365-0.352,0.855-0.669,1.246-1.008
		c1.785-1.548,1.26-1.471,1.998-2.538l0.226-1.938c-3.49-3.382-13.162-4.172-16.54-5.307c-1.935-0.316-4.849-1.071-6.151-2.047
		c0.063-0.736,0.42-1.135,0.782-1.542c0.688-0.885,2.364-1.689,3.886-2.145c1.146-0.342,4.356-1.026,5.394-0.476
		c0.589,1.028,0.043,2.896,1.061,4.135c1.817,2.21,9.242,3.031,12.588,2.793c2.827-0.201,6.18-0.924,8.405-2.049
		c1.847-0.933,4.866-2.728,5.339-5.004c-4.912-0.098-10.261,2.76-15.438,2.444c-1.441-0.088-3.738-0.619-4.551-1.416
		c-0.415-2.604,0.426-3.369,1.653-4.525c1.576-1.483,0.61-3.15-0.895-3.979c-5.263-2.9-15.394-1.355-20.717,1.762
		c-1.732,1.014-4.208,2.796-5.408,4.284L281.036,53.768z"/>
	<polygon fill-rule="evenodd" clip-rule="evenodd" fill="#58595B" points="13.609,167.498 23.539,167.496 23.545,110.654 
		13.639,110.618 	"/>
	<path fill-rule="evenodd" clip-rule="evenodd" fill="#58595B" d="M232.99,219.79c0.176,0.217,0.3,0.287,0.48,0.495l1.789,2.141
		c0.171,0.432,0.059,13.976,0.059,15.692l7.196-0.036l0.001-15.479c0.086-0.358,1.741-2.123,2.089-2.574
		c1.713-2.224,5.532-6.28,7.479-8.677c0.302-0.372,0.323-0.412,0.714-0.831l2.058-2.447c0.252-0.326,0.471-0.475,0.726-0.816
		c1.099-1.468,4.54-5.214,6.089-7.126c0.529-0.654,2.398-2.634,2.678-3.214h-8.879c-0.577,0.115-7.061,8.224-8.229,9.443
		l-6.572,7.762c-0.232,0.309-0.229,0.335-0.506,0.62c-0.406,0.419-0.514,0.654-0.994,1.075c-0.474-0.318-0.617-0.692-1.053-1.153
		l-5.54-6.546c-0.235-0.297-0.212-0.292-0.516-0.611l-8.92-10.591l-9.625,0.031L232.99,219.79z"/>
	<path fill-rule="evenodd" clip-rule="evenodd" fill="#58595B" d="M309.328,238.115l34.909,0.001l-0.04-7.197
		c-1.688,0-26.675,0.158-27.672-0.076l-0.05-33.927l-7.147,0.028V238.115z"/>
	<path fill-rule="evenodd" clip-rule="evenodd" fill="#D1E187" d="M86.627,80.637l10.152-0.016c-2.52-2.16-9.636-7.346-12.767-9.728
		c-1.094-0.833-2.107-1.575-3.197-2.415l-9.692-7.392l0.3-0.338c0.139-0.113,0.236-0.161,0.385-0.271l23.317-17.396
		c0.169-0.125,0.205-0.138,0.379-0.271l0.434-0.419l-10.256-0.008c-0.253,0.402-0.948,0.82-1.341,1.133L66.045,57.588
		c-1.258,0.987-2.604,1.885-2.069,4.382c0.269,1.251,1.312,1.846,2.369,2.706c0.928,0.755,1.978,1.522,2.945,2.281
		c1.013,0.795,1.838,1.521,2.836,2.25c0.528,0.385,0.972,0.754,1.455,1.154c0.49,0.405,0.912,0.693,1.463,1.145L86.627,80.637z"/>
	<path fill-rule="evenodd" clip-rule="evenodd" fill="#102115" d="M369.98,97.804l1.654-0.21c-0.616-0.456-6.366-2.893-7.493-3.354
		c-2.666-1.09-5.145-2.291-7.442-3.658c-3.697-2.2-6.693-3.853-10.403-6.181c-0.643-0.403-2.854-2.013-3.389-2.14
		c-1.967,4.427-3.573,6.872-7.516,9.878c-3.115,2.375-7.127,4.318-11.699,5.608c1.143,0.232,21.426,0.065,23.121,0.064
		C354.494,97.806,362.317,97.656,369.98,97.804z"/>
	<polygon fill-rule="evenodd" clip-rule="evenodd" fill="#58595B" points="349.789,238.112 356.986,238.116 356.996,197.445 
		356.939,196.917 349.79,196.935 	"/>
	<polygon fill-rule="evenodd" clip-rule="evenodd" fill="#D1E187" points="55.142,80.141 55.168,80.639 61.804,80.636 
		61.824,42.412 61.324,42.377 55.142,42.383 	"/>
	<path fill-rule="evenodd" clip-rule="evenodd" fill="#008B46" d="M342.907,82.262c0.534,0.127,2.746,1.736,3.389,2.14
		c3.71,2.328,6.706,3.98,10.403,6.181c2.298,1.367,4.776,2.568,7.442,3.658c1.127,0.461,6.877,2.897,7.493,3.354l-1.654,0.21
		l8.475-0.006c-0.317-0.205-0.759-0.41-1.074-0.632c-0.385-0.269-0.604-0.444-0.969-0.719c-3.967-2.98-18.459-9.938-24.025-13.214
		l-8.707-4.947C343.581,79.796,343.288,80.935,342.907,82.262z"/>
	<path fill-rule="evenodd" clip-rule="evenodd" fill="#FFFFFF" d="M316.598,40.958c-2.657,0.37-5.631,2.121-5.234,5.128
		c0.792,6.004,11.881,5.378,11.058-0.924C322.082,42.566,319.64,40.535,316.598,40.958z"/>
	<path fill-rule="evenodd" clip-rule="evenodd" fill="#008B46" d="M337.962,78.612c0.198-1.527,0.229-2.532,0.013-4.062
		c-0.784-0.379-3.826-2.612-4.678-3.284c-0.736-0.581-1.654-1.263-2.188-1.891c-0.418-0.491-1.434-1.676-1.571-2.479
		c-1.019-0.021-6.901-0.106-7.373,0.153c1.323,0.177,1.294,0.407,2.154,1.105C325.735,69.305,336.939,78.022,337.962,78.612z"/>
	<path fill-rule="evenodd" clip-rule="evenodd" fill="#102115" d="M337.975,74.55c-0.572-2.641-1.496-3.733-2.983-4.982
		c-0.832-0.698-4.218-2.235-5.454-2.672c0.138,0.804,1.153,1.988,1.571,2.479c0.534,0.628,1.452,1.31,2.188,1.891
		C334.148,71.938,337.19,74.171,337.975,74.55z"/>
	<path fill-rule="evenodd" clip-rule="evenodd" fill="#9B9B9E" d="M279.855,204.219c2.744-0.037,21.873,0.066,23.61-0.092
		c0.204-0.714,0.153-6.262,0.052-7.231c-1.884-0.243-23.142-0.158-23.824,0.111c3.814,0.124,8.021-0.039,11.892-0.039
		c3.949,0,7.897,0,11.847,0v7.029C300.881,203.998,280.431,203.737,279.855,204.219z"/>
	<path fill-rule="evenodd" clip-rule="evenodd" fill="#9B9B9E" d="M186.814,204.217l23.605-0.104l0.076-7.194
		c-0.994-0.196-10.412-0.072-12.224-0.072c-1.578,0-11.496-0.213-12.052,0.223l6.009-0.102c6.042,0,12.083,0,18.125,0v7.029
		C207.763,203.998,187.44,203.714,186.814,204.217z"/>
	<path fill-rule="evenodd" clip-rule="evenodd" fill="#102115" d="M296.512,59.753c-0.269-0.372-4.926-3.395-5.369-3.589
		c-0.362,0.407-0.719,0.806-0.782,1.542C291.663,58.682,294.577,59.437,296.512,59.753z"/>
</g>
</svg>
